<?xml version="1.0" encoding="UTF-8" standalone="no"?>
<!-- Uploaded to: SVG Repo, www.svgrepo.com, Transformed by: SVG Repo Mixer Tools -->

<svg
   version="1.1"
   id="Layer_1"
   viewBox="0 0 512.01 512.01"
   xml:space="preserve"
   width="800"
   height="800"
   fill="#ffffff"
   stroke="#ffffff"
   sodipodi:docname="crecimiento.svg"
   inkscape:export-filename="crecimiento.svg"
   inkscape:export-xdpi="96"
   inkscape:export-ydpi="96"
   xmlns:inkscape="http://www.inkscape.org/namespaces/inkscape"
   xmlns:sodipodi="http://sodipodi.sourceforge.net/DTD/sodipodi-0.dtd"
   xmlns="http://www.w3.org/2000/svg"
   xmlns:svg="http://www.w3.org/2000/svg"><defs
   id="defs9" /><sodipodi:namedview
   id="namedview9"
   pagecolor="#505050"
   bordercolor="#ffffff"
   borderopacity="1"
   inkscape:showpageshadow="0"
   inkscape:pageopacity="0"
   inkscape:pagecheckerboard="1"
   inkscape:deskcolor="#505050"><inkscape:page
     x="0"
     y="0"
     width="512.01001"
     height="512.01001"
     id="page2"
     margin="0"
     bleed="0" /></sodipodi:namedview>





<rect
   x="0.37373337"
   y="26.31226"
   style="display:none;fill:#000000;stroke-width:1.55983"
   width="511.85519"
   height="459.98813"
   id="rect1" /><rect
   x="0.85692579"
   y="0.98747593"
   style="display:inline;fill:#c4a557;stroke-width:1.32291"
   width="510.88882"
   height="23.677097"
   id="rect2" /><rect
   x="1.4574434"
   y="487.93292"
   style="fill:#fbec8b;stroke-width:1.32063"
   width="509.08612"
   height="23.679371"
   id="rect3" /><path
   style="display:inline;fill:#c4a557;stroke-width:2.39034"
   d="M 32.320481,308.54137 412.18827,87.045074 406.7102,45.976896 463.1882,73.898518 421.51861,158.40852 416.04054,117.34036 37.515972,341.41663 c 0,0 -4.877253,-32.31839 -5.195491,-32.87526 z"
   id="path3" /><rect
   x="71.488159"
   y="429.32529"
   style="display:inline;fill:#fbec8b"
   width="24"
   height="39.919998"
   id="rect4" /><g
   id="g6"
   transform="matrix(0.99747537,0,0,1.5980951,-112.015,-113.48334)"> <rect
   x="144.00301"
   y="344.56"
   style="fill:#c4a557"
   width="24"
   height="19.923"
   id="rect5" /> <rect
   x="224.00301"
   y="297.59799"
   style="fill:#c4a557"
   width="24"
   height="66.959999"
   id="rect6" /> </g><rect
   x="152.19556"
   y="317.85718"
   style="display:inline;fill:#fbec8b;stroke-width:1.21152"
   width="23.788475"
   height="151.28734"
   id="rect7" /><rect
   x="191.49315"
   y="335.93396"
   style="fill:#c4a557"
   width="24"
   height="133.918"
   id="rect8" /><rect
   x="268.78635"
   y="354.77594"
   style="fill:#c4a557;stroke-width:0.92465"
   width="24.07535"
   height="114.13867"
   id="rect8-6" /><rect
   x="346.3642"
   y="282.77579"
   style="fill:#c4a557;stroke-width:1.1745"
   width="23.825497"
   height="186.08765"
   id="rect8-6-5" /><rect
   x="425.28339"
   y="206.96767"
   style="fill:#c4a557;stroke-width:1.38348"
   width="23.61652"
   height="260.48413"
   id="rect8-6-5-1" /><rect
   x="230.27051"
   y="303.86343"
   style="fill:#fbec8b;stroke-width:0.971334"
   width="24.028666"
   height="166.76251"
   id="rect9" /><rect
   x="307.40216"
   y="317.91312"
   style="fill:#fbec8b;stroke-width:0.927473"
   width="24.072527"
   height="151.76495"
   id="rect9-5" /><rect
   x="385.47864"
   y="244.96169"
   style="fill:#fbec8b;stroke-width:1.11871"
   width="23.881294"
   height="222.56923"
   id="rect9-5-2" /><rect
   x="464.91336"
   y="163.00043"
   style="fill:#fbec8b;stroke-width:1.30284"
   width="23.697165"
   height="304.21042"
   id="rect9-5-2-7" />

</svg>
