<?xml version="1.0" encoding="UTF-8" standalone="no"?>
<svg
   version="1.0"
   width="988.86078pt"
   height="1285.1711pt"
   viewBox="0 0 988.86078 1285.1711"
   preserveAspectRatio="xMidYMid"
   id="svg4"
   xmlns="http://www.w3.org/2000/svg"
   xmlns:svg="http://www.w3.org/2000/svg">
  <defs
     id="defs4" />
  <metadata
     id="metadata1">
Created by potrace 1.15, written by Peter Selinger 2001-2017
</metadata>
  <rect
     style="fill:#000000;stroke:#af09b3;stroke-width:2.16284;stroke-linecap:square;stroke-linejoin:round;stroke-miterlimit:6;stroke-dasharray:51.908, 2.16284;stroke-opacity:0;paint-order:stroke fill markers"
     id="rect1"
     width="986.698"
     height="1283.0082"
     x="1.0814199"
     y="1.0814201" />
  <g
     transform="matrix(0.09924035,0,0,-0.09905993,4.638391,1277.1972)"
     fill="#000000"
     stroke="none"
     id="g4">
    <path
       d="m 103,12781 c -26,-12 -52,-35 -70,-62 L 5,12676 V 6400 124 L 33,81 C 51,54 77,31 103,19 144,1 251,0 4955,0 c 4704,0 4811,1 4852,19 26,12 52,35 70,62 l 28,43 v 6276 6276 l -28,43 c -18,27 -44,50 -70,62 -41,18 -148,19 -4852,19 -4704,0 -4811,-1 -4852,-19 z m 1047,-608 v -528 l -525,3 -525,2 v 499 c 0,489 0,499 21,525 l 20,26 h 505 504 z m 8639,501 c 21,-26 21,-36 21,-525 v -499 H 5530 1250 v 525 525 H 5509 9769 Z M 1150,11325 v -225 H 625 100 v 225 225 h 525 525 z m 8660,0 v -225 H 5530 1250 v 225 225 h 4280 4280 z m -8660,-550 v -225 H 625 100 v 225 225 h 525 525 z m 8660,0 v -225 H 5530 1250 v 225 225 h 4280 4280 z m -8660,-540 v -225 H 625 100 v 225 225 h 525 525 z m 8660,0 v -225 H 5530 1250 v 225 225 H 5530 9810 Z M 1150,9685 V 9460 H 625 100 v 225 225 h 525 525 z m 8660,0 V 9460 H 5530 1250 v 225 225 H 5530 9810 Z M 1150,9143 V 8915 H 625 100 v 222 223 l 523,3 c 287,1 523,3 525,5 1,1 2,-100 2,-225 z m 8660,-5 v -223 l -4277,2 -4278,3 -3,220 -2,220 H 5530 9810 Z M 1150,8595 V 8370 H 625 100 v 225 225 h 525 525 z m 8660,0 V 8370 H 5530 1250 v 225 225 H 5530 9810 Z M 1150,8045 V 7820 H 625 100 v 225 225 h 525 525 z m 8660,0 V 7820 H 5530 1250 v 225 225 H 5530 9810 Z M 1150,7505 V 7280 H 625 100 v 225 225 h 525 525 z m 8660,0 V 7280 H 5530 1250 v 225 225 H 5530 9810 Z M 1150,6955 V 6730 H 625 100 v 225 225 h 525 525 z m 8660,0 V 6730 H 5530 1250 v 225 225 H 5530 9810 Z M 1150,6413 v -228 l -525,3 -525,2 v 225 225 h 525 525 z m 8660,2 V 6190 H 5530 1250 v 218 c 0,120 3,222 7,225 3,4 1929,7 4280,7 H 9810 Z M 1150,5865 V 5640 H 625 100 v 225 225 h 525 525 z m 8660,0 V 5640 H 5530 1250 v 225 225 H 5530 9810 Z M 1150,5315 V 5090 H 625 100 v 225 225 h 525 525 z m 8660,0 V 5090 H 5530 1250 v 225 225 H 5530 9810 Z M 1150,4775 V 4550 H 625 100 v 225 225 h 525 525 z m 8660,0 V 4550 H 5530 1250 v 225 225 H 5530 9810 Z M 1150,4225 V 4000 H 625 100 v 225 225 h 525 525 z m 8660,0 V 4000 H 5530 1250 v 225 225 H 5530 9810 Z M 1150,3685 V 3460 H 625 100 v 225 225 h 525 525 z m 8660,0 V 3460 H 5530 1250 v 225 225 H 5530 9810 Z M 1150,3135 V 2910 H 625 100 v 225 225 h 525 525 z m 8660,0 V 2910 H 5530 1250 v 225 225 H 5530 9810 Z M 1150,2585 V 2360 H 625 100 v 225 225 h 525 525 z m 8660,0 V 2360 H 5530 1250 v 225 225 H 5530 9810 Z M 1150,2045 V 1820 H 625 100 v 225 225 h 525 525 z m 8660,0 V 1820 H 5530 1250 v 225 225 H 5530 9810 Z M 1150,1495 V 1270 H 625 100 v 225 225 h 525 525 z m 8660,0 V 1270 H 5530 1250 v 225 225 H 5530 9810 Z M 1150,955 V 730 H 625 100 v 225 225 h 525 525 z m 8660,0 V 730 H 5530 1250 v 218 c 0,120 3,222 7,225 3,4 1929,7 4280,7 H 9810 Z M 1150,365 V 100 H 646 141 l -20,26 c -20,25 -21,39 -21,265 v 239 h 525 525 z m 8660,26 c 0,-226 -1,-240 -21,-265 l -20,-26 H 5509 1250 v 265 265 h 4280 4280 z"
       id="path1"
       style="fill:#fbec8b;fill-opacity:1" />
    <path
       d="m 549,11977 c -89,-59 -88,-172 3,-240 32,-24 107,-25 147,-1 37,22 71,82 71,125 0,106 -132,176 -221,116 z"
       id="path2" />
    <path
       d="m 564,6531 c -32,-14 -72,-68 -80,-106 -8,-45 10,-95 47,-131 27,-26 37,-29 94,-29 54,0 67,4 90,25 73,68 73,152 1,219 -28,27 -113,39 -152,22 z"
       id="path3" />
    <path
       d="M 592,1079 C 524,1065 471,984 484,915 508,787 681,759 750,872 c 26,42 25,91 -1,137 -33,59 -91,84 -157,70 z"
       id="path4" />
  </g>
</svg>
